<?xml version="1.0" encoding="utf-8" standalone="no"?>
<!DOCTYPE svg PUBLIC "-//W3C//DTD SVG 1.1//EN"
  "http://www.w3.org/Graphics/SVG/1.1/DTD/svg11.dtd">
<!-- Created with matplotlib (https://matplotlib.org/) -->
<svg height="345.6pt" version="1.1" viewBox="0 0 460.8 345.6" width="460.8pt" xmlns="http://www.w3.org/2000/svg" xmlns:xlink="http://www.w3.org/1999/xlink">
 <metadata>
  <rdf:RDF xmlns:cc="http://creativecommons.org/ns#" xmlns:dc="http://purl.org/dc/elements/1.1/" xmlns:rdf="http://www.w3.org/1999/02/22-rdf-syntax-ns#">
   <cc:Work>
    <dc:type rdf:resource="http://purl.org/dc/dcmitype/StillImage"/>
    <dc:date>2023-02-12T15:25:00.947325</dc:date>
    <dc:format>image/svg+xml</dc:format>
    <dc:creator>
     <cc:Agent>
      <dc:title>Matplotlib v3.3.1, https://matplotlib.org/</dc:title>
     </cc:Agent>
    </dc:creator>
   </cc:Work>
  </rdf:RDF>
 </metadata>
 <defs>
  <style type="text/css">*{stroke-linecap:butt;stroke-linejoin:round;}</style>
 </defs>
 <g id="figure_1">
  <g id="patch_1">
   <path d="M 0 345.6 
L 460.8 345.6 
L 460.8 0 
L 0 0 
z
" style="fill:#ffffff;"/>
  </g>
  <g id="axes_1">
   <g id="patch_2">
    <path d="M 29.08774 321.082572 
L 457.79976 321.082572 
L 457.79976 3.00024 
L 29.08774 3.00024 
z
" style="fill:#ffffff;"/>
   </g>
   <g id="PathCollection_1">
    <defs>
     <path d="M 0 3 
C 0.795609 3 1.55874 2.683901 2.12132 2.12132 
C 2.683901 1.55874 3 0.795609 3 0 
C 3 -0.795609 2.683901 -1.55874 2.12132 -2.12132 
C 1.55874 -2.683901 0.795609 -3 0 -3 
C -0.795609 -3 -1.55874 -2.683901 -2.12132 -2.12132 
C -2.683901 -1.55874 -3 -0.795609 -3 0 
C -3 0.795609 -2.683901 1.55874 -2.12132 2.12132 
C -1.55874 2.683901 -0.795609 3 0 3 
z
" id="m0a3ff9dcf3" style="stroke:#f2f6f1;stroke-opacity:0.705882;"/>
    </defs>
    <g clip-path="url(#p7c483c5bd6)">
     <use style="fill:#f2f6f1;fill-opacity:0.705882;stroke:#f2f6f1;stroke-opacity:0.705882;" x="48.57465" xlink:href="#m0a3ff9dcf3" y="144.107577"/>
    </g>
   </g>
   <g id="PathCollection_2">
    <defs>
     <path d="M 0 3 
C 0.795609 3 1.55874 2.683901 2.12132 2.12132 
C 2.683901 1.55874 3 0.795609 3 0 
C 3 -0.795609 2.683901 -1.55874 2.12132 -2.12132 
C 1.55874 -2.683901 0.795609 -3 0 -3 
C -0.795609 -3 -1.55874 -2.683901 -2.12132 -2.12132 
C -2.683901 -1.55874 -3 -0.795609 -3 0 
C -3 0.795609 -2.683901 1.55874 -2.12132 2.12132 
C -1.55874 2.683901 -0.795609 3 0 3 
z
" id="m9fcc318fe1" style="stroke:#b1f579;stroke-opacity:0.956863;"/>
    </defs>
    <g clip-path="url(#p7c483c5bd6)">
     <use style="fill:#b1f579;fill-opacity:0.956863;stroke:#b1f579;stroke-opacity:0.956863;" x="178.487383" xlink:href="#m9fcc318fe1" y="189.454149"/>
    </g>
   </g>
   <g id="PathCollection_3">
    <defs>
     <path d="M 0 3 
C 0.795609 3 1.55874 2.683901 2.12132 2.12132 
C 2.683901 1.55874 3 0.795609 3 0 
C 3 -0.795609 2.683901 -1.55874 2.12132 -2.12132 
C 1.55874 -2.683901 0.795609 -3 0 -3 
C -0.795609 -3 -1.55874 -2.683901 -2.12132 -2.12132 
C -2.683901 -1.55874 -3 -0.795609 -3 0 
C -3 0.795609 -2.683901 1.55874 -2.12132 2.12132 
C -1.55874 2.683901 -0.795609 3 0 3 
z
" id="md8722a2dbe" style="stroke:#4ea1c2;stroke-opacity:0.207843;"/>
    </defs>
    <g clip-path="url(#p7c483c5bd6)">
     <use style="fill:#4ea1c2;fill-opacity:0.207843;stroke:#4ea1c2;stroke-opacity:0.207843;" x="308.400117" xlink:href="#md8722a2dbe" y="122.768014"/>
    </g>
   </g>
   <g id="PathCollection_4">
    <defs>
     <path d="M 0 3 
C 0.795609 3 1.55874 2.683901 2.12132 2.12132 
C 2.683901 1.55874 3 0.795609 3 0 
C 3 -0.795609 2.683901 -1.55874 2.12132 -2.12132 
C 1.55874 -2.683901 0.795609 -3 0 -3 
C -0.795609 -3 -1.55874 -2.683901 -2.12132 -2.12132 
C -2.683901 -1.55874 -3 -0.795609 -3 0 
C -3 0.795609 -2.683901 1.55874 -2.12132 2.12132 
C -1.55874 2.683901 -0.795609 3 0 3 
z
" id="mbaadd78f41" style="stroke:#5e98f0;stroke-opacity:0.729412;"/>
    </defs>
    <g clip-path="url(#p7c483c5bd6)">
     <use style="fill:#5e98f0;fill-opacity:0.729412;stroke:#5e98f0;stroke-opacity:0.729412;" x="438.31285" xlink:href="#mbaadd78f41" y="141.850508"/>
    </g>
   </g>
   <g id="matplotlib.axis_1">
    <g id="xtick_1">
     <g id="line2d_1">
      <defs>
       <path d="M 0 0 
L 0 3.5 
" id="m2d5a39ee4f" style="stroke:#000000;stroke-width:0.8;"/>
      </defs>
      <g>
       <use style="stroke:#000000;stroke-width:0.8;" x="48.57465" xlink:href="#m2d5a39ee4f" y="321.082572"/>
      </g>
     </g>
     <g id="text_1">
      <!-- 0 -->
      <g transform="translate(43.802775 339.480229)scale(0.15 -0.15)">
       <defs>
        <path d="M 31.78125 66.40625 
Q 24.171875 66.40625 20.328125 58.90625 
Q 16.5 51.421875 16.5 36.375 
Q 16.5 21.390625 20.328125 13.890625 
Q 24.171875 6.390625 31.78125 6.390625 
Q 39.453125 6.390625 43.28125 13.890625 
Q 47.125 21.390625 47.125 36.375 
Q 47.125 51.421875 43.28125 58.90625 
Q 39.453125 66.40625 31.78125 66.40625 
z
M 31.78125 74.21875 
Q 44.046875 74.21875 50.515625 64.515625 
Q 56.984375 54.828125 56.984375 36.375 
Q 56.984375 17.96875 50.515625 8.265625 
Q 44.046875 -1.421875 31.78125 -1.421875 
Q 19.53125 -1.421875 13.0625 8.265625 
Q 6.59375 17.96875 6.59375 36.375 
Q 6.59375 54.828125 13.0625 64.515625 
Q 19.53125 74.21875 31.78125 74.21875 
z
" id="DejaVuSans-48"/>
       </defs>
       <use xlink:href="#DejaVuSans-48"/>
      </g>
     </g>
    </g>
    <g id="xtick_2">
     <g id="line2d_2">
      <g>
       <use style="stroke:#000000;stroke-width:0.8;" x="178.487383" xlink:href="#m2d5a39ee4f" y="321.082572"/>
      </g>
     </g>
     <g id="text_2">
      <!-- 1 -->
      <g transform="translate(173.715508 339.480229)scale(0.15 -0.15)">
       <defs>
        <path d="M 12.40625 8.296875 
L 28.515625 8.296875 
L 28.515625 63.921875 
L 10.984375 60.40625 
L 10.984375 69.390625 
L 28.421875 72.90625 
L 38.28125 72.90625 
L 38.28125 8.296875 
L 54.390625 8.296875 
L 54.390625 0 
L 12.40625 0 
z
" id="DejaVuSans-49"/>
       </defs>
       <use xlink:href="#DejaVuSans-49"/>
      </g>
     </g>
    </g>
    <g id="xtick_3">
     <g id="line2d_3">
      <g>
       <use style="stroke:#000000;stroke-width:0.8;" x="308.400117" xlink:href="#m2d5a39ee4f" y="321.082572"/>
      </g>
     </g>
     <g id="text_3">
      <!-- 2 -->
      <g transform="translate(303.628242 339.480229)scale(0.15 -0.15)">
       <defs>
        <path d="M 19.1875 8.296875 
L 53.609375 8.296875 
L 53.609375 0 
L 7.328125 0 
L 7.328125 8.296875 
Q 12.9375 14.109375 22.625 23.890625 
Q 32.328125 33.6875 34.8125 36.53125 
Q 39.546875 41.84375 41.421875 45.53125 
Q 43.3125 49.21875 43.3125 52.78125 
Q 43.3125 58.59375 39.234375 62.25 
Q 35.15625 65.921875 28.609375 65.921875 
Q 23.96875 65.921875 18.8125 64.3125 
Q 13.671875 62.703125 7.8125 59.421875 
L 7.8125 69.390625 
Q 13.765625 71.78125 18.9375 73 
Q 24.125 74.21875 28.421875 74.21875 
Q 39.75 74.21875 46.484375 68.546875 
Q 53.21875 62.890625 53.21875 53.421875 
Q 53.21875 48.921875 51.53125 44.890625 
Q 49.859375 40.875 45.40625 35.40625 
Q 44.1875 33.984375 37.640625 27.21875 
Q 31.109375 20.453125 19.1875 8.296875 
z
" id="DejaVuSans-50"/>
       </defs>
       <use xlink:href="#DejaVuSans-50"/>
      </g>
     </g>
    </g>
    <g id="xtick_4">
     <g id="line2d_4">
      <g>
       <use style="stroke:#000000;stroke-width:0.8;" x="438.31285" xlink:href="#m2d5a39ee4f" y="321.082572"/>
      </g>
     </g>
     <g id="text_4">
      <!-- 3 -->
      <g transform="translate(433.540975 339.480229)scale(0.15 -0.15)">
       <defs>
        <path d="M 40.578125 39.3125 
Q 47.65625 37.796875 51.625 33 
Q 55.609375 28.21875 55.609375 21.1875 
Q 55.609375 10.40625 48.1875 4.484375 
Q 40.765625 -1.421875 27.09375 -1.421875 
Q 22.515625 -1.421875 17.65625 -0.515625 
Q 12.796875 0.390625 7.625 2.203125 
L 7.625 11.71875 
Q 11.71875 9.328125 16.59375 8.109375 
Q 21.484375 6.890625 26.8125 6.890625 
Q 36.078125 6.890625 40.9375 10.546875 
Q 45.796875 14.203125 45.796875 21.1875 
Q 45.796875 27.640625 41.28125 31.265625 
Q 36.765625 34.90625 28.71875 34.90625 
L 20.21875 34.90625 
L 20.21875 43.015625 
L 29.109375 43.015625 
Q 36.375 43.015625 40.234375 45.921875 
Q 44.09375 48.828125 44.09375 54.296875 
Q 44.09375 59.90625 40.109375 62.90625 
Q 36.140625 65.921875 28.71875 65.921875 
Q 24.65625 65.921875 20.015625 65.03125 
Q 15.375 64.15625 9.8125 62.3125 
L 9.8125 71.09375 
Q 15.4375 72.65625 20.34375 73.4375 
Q 25.25 74.21875 29.59375 74.21875 
Q 40.828125 74.21875 47.359375 69.109375 
Q 53.90625 64.015625 53.90625 55.328125 
Q 53.90625 49.265625 50.4375 45.09375 
Q 46.96875 40.921875 40.578125 39.3125 
z
" id="DejaVuSans-51"/>
       </defs>
       <use xlink:href="#DejaVuSans-51"/>
      </g>
     </g>
    </g>
   </g>
   <g id="matplotlib.axis_2">
    <g id="ytick_1">
     <g id="line2d_5">
      <defs>
       <path d="M 0 0 
L -3.5 0 
" id="me3dc741950" style="stroke:#000000;stroke-width:0.8;"/>
      </defs>
      <g>
       <use style="stroke:#000000;stroke-width:0.8;" x="29.08774" xlink:href="#me3dc741950" y="293.279332"/>
      </g>
     </g>
     <g id="text_5">
      <!-- 10 -->
      <g transform="translate(3.00024 298.97816)scale(0.15 -0.15)">
       <use xlink:href="#DejaVuSans-49"/>
       <use x="63.623047" xlink:href="#DejaVuSans-48"/>
      </g>
     </g>
    </g>
    <g id="ytick_2">
     <g id="line2d_6">
      <g>
       <use style="stroke:#000000;stroke-width:0.8;" x="29.08774" xlink:href="#me3dc741950" y="231.722899"/>
      </g>
     </g>
     <g id="text_6">
      <!-- 20 -->
      <g transform="translate(3.00024 237.421727)scale(0.15 -0.15)">
       <use xlink:href="#DejaVuSans-50"/>
       <use x="63.623047" xlink:href="#DejaVuSans-48"/>
      </g>
     </g>
    </g>
    <g id="ytick_3">
     <g id="line2d_7">
      <g>
       <use style="stroke:#000000;stroke-width:0.8;" x="29.08774" xlink:href="#me3dc741950" y="170.166467"/>
      </g>
     </g>
     <g id="text_7">
      <!-- 30 -->
      <g transform="translate(3.00024 175.865295)scale(0.15 -0.15)">
       <use xlink:href="#DejaVuSans-51"/>
       <use x="63.623047" xlink:href="#DejaVuSans-48"/>
      </g>
     </g>
    </g>
    <g id="ytick_4">
     <g id="line2d_8">
      <g>
       <use style="stroke:#000000;stroke-width:0.8;" x="29.08774" xlink:href="#me3dc741950" y="108.610034"/>
      </g>
     </g>
     <g id="text_8">
      <!-- 40 -->
      <g transform="translate(3.00024 114.308862)scale(0.15 -0.15)">
       <defs>
        <path d="M 37.796875 64.3125 
L 12.890625 25.390625 
L 37.796875 25.390625 
z
M 35.203125 72.90625 
L 47.609375 72.90625 
L 47.609375 25.390625 
L 58.015625 25.390625 
L 58.015625 17.1875 
L 47.609375 17.1875 
L 47.609375 0 
L 37.796875 0 
L 37.796875 17.1875 
L 4.890625 17.1875 
L 4.890625 26.703125 
z
" id="DejaVuSans-52"/>
       </defs>
       <use xlink:href="#DejaVuSans-52"/>
       <use x="63.623047" xlink:href="#DejaVuSans-48"/>
      </g>
     </g>
    </g>
    <g id="ytick_5">
     <g id="line2d_9">
      <g>
       <use style="stroke:#000000;stroke-width:0.8;" x="29.08774" xlink:href="#me3dc741950" y="47.053602"/>
      </g>
     </g>
     <g id="text_9">
      <!-- 50 -->
      <g transform="translate(3.00024 52.75243)scale(0.15 -0.15)">
       <defs>
        <path d="M 10.796875 72.90625 
L 49.515625 72.90625 
L 49.515625 64.59375 
L 19.828125 64.59375 
L 19.828125 46.734375 
Q 21.96875 47.46875 24.109375 47.828125 
Q 26.265625 48.1875 28.421875 48.1875 
Q 40.625 48.1875 47.75 41.5 
Q 54.890625 34.8125 54.890625 23.390625 
Q 54.890625 11.625 47.5625 5.09375 
Q 40.234375 -1.421875 26.90625 -1.421875 
Q 22.3125 -1.421875 17.546875 -0.640625 
Q 12.796875 0.140625 7.71875 1.703125 
L 7.71875 11.625 
Q 12.109375 9.234375 16.796875 8.0625 
Q 21.484375 6.890625 26.703125 6.890625 
Q 35.15625 6.890625 40.078125 11.328125 
Q 45.015625 15.765625 45.015625 23.390625 
Q 45.015625 31 40.078125 35.4375 
Q 35.15625 39.890625 26.703125 39.890625 
Q 22.75 39.890625 18.8125 39.015625 
Q 14.890625 38.140625 10.796875 36.28125 
z
" id="DejaVuSans-53"/>
       </defs>
       <use xlink:href="#DejaVuSans-53"/>
       <use x="63.623047" xlink:href="#DejaVuSans-48"/>
      </g>
     </g>
    </g>
   </g>
   <g id="LineCollection_1">
    <path clip-path="url(#p7c483c5bd6)" d="M 48.57465 259.046073 
L 48.57465 29.169081 
" style="fill:none;stroke:#f2f6f1;stroke-opacity:0.705882;stroke-width:1.5;"/>
   </g>
   <g id="LineCollection_2">
    <path clip-path="url(#p7c483c5bd6)" d="M 178.487383 306.624285 
L 178.487383 72.284013 
" style="fill:none;stroke:#b1f579;stroke-opacity:0.956863;stroke-width:1.5;"/>
   </g>
   <g id="LineCollection_3">
    <path clip-path="url(#p7c483c5bd6)" d="M 308.400117 228.0775 
L 308.400117 17.458528 
" style="fill:none;stroke:#4ea1c2;stroke-opacity:0.207843;stroke-width:1.5;"/>
   </g>
   <g id="LineCollection_4">
    <path clip-path="url(#p7c483c5bd6)" d="M 438.31285 245.069712 
L 438.31285 38.631303 
" style="fill:none;stroke:#5e98f0;stroke-opacity:0.729412;stroke-width:1.5;"/>
   </g>
   <g id="line2d_10">
    <path clip-path="url(#p7c483c5bd6)" d="M 29.08774 144.107577 
L 457.79976 144.107577 
" style="fill:none;stroke:#f2f6f1;stroke-dasharray:5.55,2.4;stroke-dashoffset:0;stroke-opacity:0.705882;stroke-width:1.5;"/>
   </g>
   <g id="line2d_11">
    <defs>
     <path d="M 5 0 
L -5 -0 
" id="m0f576e56db" style="stroke:#f2f6f1;stroke-opacity:0.705882;"/>
    </defs>
    <g clip-path="url(#p7c483c5bd6)">
     <use style="fill:#f2f6f1;fill-opacity:0.705882;stroke:#f2f6f1;stroke-opacity:0.705882;" x="48.57465" xlink:href="#m0f576e56db" y="259.046073"/>
    </g>
   </g>
   <g id="line2d_12">
    <g clip-path="url(#p7c483c5bd6)">
     <use style="fill:#f2f6f1;fill-opacity:0.705882;stroke:#f2f6f1;stroke-opacity:0.705882;" x="48.57465" xlink:href="#m0f576e56db" y="29.169081"/>
    </g>
   </g>
   <g id="line2d_13">
    <path clip-path="url(#p7c483c5bd6)" d="M 29.08774 189.454149 
L 457.79976 189.454149 
" style="fill:none;stroke:#b1f579;stroke-dasharray:5.55,2.4;stroke-dashoffset:0;stroke-opacity:0.956863;stroke-width:1.5;"/>
   </g>
   <g id="line2d_14">
    <defs>
     <path d="M 5 0 
L -5 -0 
" id="mae5c880fe6" style="stroke:#b1f579;stroke-opacity:0.956863;"/>
    </defs>
    <g clip-path="url(#p7c483c5bd6)">
     <use style="fill:#b1f579;fill-opacity:0.956863;stroke:#b1f579;stroke-opacity:0.956863;" x="178.487383" xlink:href="#mae5c880fe6" y="306.624285"/>
    </g>
   </g>
   <g id="line2d_15">
    <g clip-path="url(#p7c483c5bd6)">
     <use style="fill:#b1f579;fill-opacity:0.956863;stroke:#b1f579;stroke-opacity:0.956863;" x="178.487383" xlink:href="#mae5c880fe6" y="72.284013"/>
    </g>
   </g>
   <g id="line2d_16">
    <path clip-path="url(#p7c483c5bd6)" d="M 29.08774 122.768014 
L 457.79976 122.768014 
" style="fill:none;stroke:#4ea1c2;stroke-dasharray:5.55,2.4;stroke-dashoffset:0;stroke-opacity:0.207843;stroke-width:1.5;"/>
   </g>
   <g id="line2d_17">
    <defs>
     <path d="M 5 0 
L -5 -0 
" id="m12d508f4f7" style="stroke:#4ea1c2;stroke-opacity:0.207843;"/>
    </defs>
    <g clip-path="url(#p7c483c5bd6)">
     <use style="fill:#4ea1c2;fill-opacity:0.207843;stroke:#4ea1c2;stroke-opacity:0.207843;" x="308.400117" xlink:href="#m12d508f4f7" y="228.0775"/>
    </g>
   </g>
   <g id="line2d_18">
    <g clip-path="url(#p7c483c5bd6)">
     <use style="fill:#4ea1c2;fill-opacity:0.207843;stroke:#4ea1c2;stroke-opacity:0.207843;" x="308.400117" xlink:href="#m12d508f4f7" y="17.458528"/>
    </g>
   </g>
   <g id="line2d_19">
    <path clip-path="url(#p7c483c5bd6)" d="M 29.08774 141.850508 
L 457.79976 141.850508 
" style="fill:none;stroke:#5e98f0;stroke-dasharray:5.55,2.4;stroke-dashoffset:0;stroke-opacity:0.729412;stroke-width:1.5;"/>
   </g>
   <g id="line2d_20">
    <defs>
     <path d="M 5 0 
L -5 -0 
" id="mbf7f1ff040" style="stroke:#5e98f0;stroke-opacity:0.729412;"/>
    </defs>
    <g clip-path="url(#p7c483c5bd6)">
     <use style="fill:#5e98f0;fill-opacity:0.729412;stroke:#5e98f0;stroke-opacity:0.729412;" x="438.31285" xlink:href="#mbf7f1ff040" y="245.069712"/>
    </g>
   </g>
   <g id="line2d_21">
    <g clip-path="url(#p7c483c5bd6)">
     <use style="fill:#5e98f0;fill-opacity:0.729412;stroke:#5e98f0;stroke-opacity:0.729412;" x="438.31285" xlink:href="#mbf7f1ff040" y="38.631303"/>
    </g>
   </g>
   <g id="line2d_22">
    <path clip-path="url(#p7c483c5bd6)" d="M 48.57465 144.107577 
" style="fill:none;stroke:#f2f6f1;stroke-linecap:square;stroke-opacity:0.705882;stroke-width:1.5;"/>
   </g>
   <g id="line2d_23">
    <path clip-path="url(#p7c483c5bd6)" d="M 178.487383 189.454149 
" style="fill:none;stroke:#b1f579;stroke-linecap:square;stroke-opacity:0.956863;stroke-width:1.5;"/>
   </g>
   <g id="line2d_24">
    <path clip-path="url(#p7c483c5bd6)" d="M 308.400117 122.768014 
" style="fill:none;stroke:#4ea1c2;stroke-linecap:square;stroke-opacity:0.207843;stroke-width:1.5;"/>
   </g>
   <g id="line2d_25">
    <path clip-path="url(#p7c483c5bd6)" d="M 438.31285 141.850508 
" style="fill:none;stroke:#5e98f0;stroke-linecap:square;stroke-opacity:0.729412;stroke-width:1.5;"/>
   </g>
   <g id="patch_3">
    <path d="M 29.08774 321.082572 
L 29.08774 3.00024 
" style="fill:none;stroke:#000000;stroke-linecap:square;stroke-linejoin:miter;stroke-width:0.8;"/>
   </g>
   <g id="patch_4">
    <path d="M 457.79976 321.082572 
L 457.79976 3.00024 
" style="fill:none;stroke:#000000;stroke-linecap:square;stroke-linejoin:miter;stroke-width:0.8;"/>
   </g>
   <g id="patch_5">
    <path d="M 29.08774 321.082572 
L 457.79976 321.082572 
" style="fill:none;stroke:#000000;stroke-linecap:square;stroke-linejoin:miter;stroke-width:0.8;"/>
   </g>
   <g id="patch_6">
    <path d="M 29.08774 3.00024 
L 457.79976 3.00024 
" style="fill:none;stroke:#000000;stroke-linecap:square;stroke-linejoin:miter;stroke-width:0.8;"/>
   </g>
   <g id="legend_1">
    <g id="patch_7">
     <path d="M 399.13726 316.082572 
L 450.79976 316.082572 
Q 452.79976 316.082572 452.79976 314.082572 
L 452.79976 256.370072 
Q 452.79976 254.370072 450.79976 254.370072 
L 399.13726 254.370072 
Q 397.13726 254.370072 397.13726 256.370072 
L 397.13726 314.082572 
Q 397.13726 316.082572 399.13726 316.082572 
z
" style="fill:#ffffff;opacity:0.8;stroke:#cccccc;stroke-linejoin:miter;"/>
    </g>
    <g id="line2d_26">
     <path d="M 401.13726 262.46851 
L 421.13726 262.46851 
" style="fill:none;stroke:#f2f6f1;stroke-dasharray:5.55,2.4;stroke-dashoffset:0;stroke-opacity:0.705882;stroke-width:1.5;"/>
    </g>
    <g id="line2d_27"/>
    <g id="text_10">
     <!-- ['0'] -->
     <g transform="translate(429.13726 265.96851)scale(0.1 -0.1)">
      <defs>
       <path d="M 8.59375 75.984375 
L 29.296875 75.984375 
L 29.296875 69 
L 17.578125 69 
L 17.578125 -6.203125 
L 29.296875 -6.203125 
L 29.296875 -13.1875 
L 8.59375 -13.1875 
z
" id="DejaVuSans-91"/>
       <path d="M 17.921875 72.90625 
L 17.921875 45.796875 
L 9.625 45.796875 
L 9.625 72.90625 
z
" id="DejaVuSans-39"/>
       <path d="M 30.421875 75.984375 
L 30.421875 -13.1875 
L 9.71875 -13.1875 
L 9.71875 -6.203125 
L 21.390625 -6.203125 
L 21.390625 69 
L 9.71875 69 
L 9.71875 75.984375 
z
" id="DejaVuSans-93"/>
      </defs>
      <use xlink:href="#DejaVuSans-91"/>
      <use x="39.013672" xlink:href="#DejaVuSans-39"/>
      <use x="66.503906" xlink:href="#DejaVuSans-48"/>
      <use x="130.126953" xlink:href="#DejaVuSans-39"/>
      <use x="157.617188" xlink:href="#DejaVuSans-93"/>
     </g>
    </g>
    <g id="line2d_28">
     <path d="M 401.13726 277.146635 
L 421.13726 277.146635 
" style="fill:none;stroke:#b1f579;stroke-dasharray:5.55,2.4;stroke-dashoffset:0;stroke-opacity:0.956863;stroke-width:1.5;"/>
    </g>
    <g id="line2d_29"/>
    <g id="text_11">
     <!-- ['1'] -->
     <g transform="translate(429.13726 280.646635)scale(0.1 -0.1)">
      <use xlink:href="#DejaVuSans-91"/>
      <use x="39.013672" xlink:href="#DejaVuSans-39"/>
      <use x="66.503906" xlink:href="#DejaVuSans-49"/>
      <use x="130.126953" xlink:href="#DejaVuSans-39"/>
      <use x="157.617188" xlink:href="#DejaVuSans-93"/>
     </g>
    </g>
    <g id="line2d_30">
     <path d="M 401.13726 291.82476 
L 421.13726 291.82476 
" style="fill:none;stroke:#4ea1c2;stroke-dasharray:5.55,2.4;stroke-dashoffset:0;stroke-opacity:0.207843;stroke-width:1.5;"/>
    </g>
    <g id="line2d_31"/>
    <g id="text_12">
     <!-- ['2'] -->
     <g transform="translate(429.13726 295.32476)scale(0.1 -0.1)">
      <use xlink:href="#DejaVuSans-91"/>
      <use x="39.013672" xlink:href="#DejaVuSans-39"/>
      <use x="66.503906" xlink:href="#DejaVuSans-50"/>
      <use x="130.126953" xlink:href="#DejaVuSans-39"/>
      <use x="157.617188" xlink:href="#DejaVuSans-93"/>
     </g>
    </g>
    <g id="line2d_32">
     <path d="M 401.13726 306.502885 
L 421.13726 306.502885 
" style="fill:none;stroke:#5e98f0;stroke-dasharray:5.55,2.4;stroke-dashoffset:0;stroke-opacity:0.729412;stroke-width:1.5;"/>
    </g>
    <g id="line2d_33"/>
    <g id="text_13">
     <!-- ['3'] -->
     <g transform="translate(429.13726 310.002885)scale(0.1 -0.1)">
      <use xlink:href="#DejaVuSans-91"/>
      <use x="39.013672" xlink:href="#DejaVuSans-39"/>
      <use x="66.503906" xlink:href="#DejaVuSans-51"/>
      <use x="130.126953" xlink:href="#DejaVuSans-39"/>
      <use x="157.617188" xlink:href="#DejaVuSans-93"/>
     </g>
    </g>
   </g>
  </g>
 </g>
 <defs>
  <clipPath id="p7c483c5bd6">
   <rect height="318.082332" width="428.71202" x="29.08774" y="3.00024"/>
  </clipPath>
 </defs>
</svg>
